<?xml version="1.0" encoding="UTF-8" standalone="no"?>
<svg version="1.1" xmlns="http://www.w3.org/2000/svg" xmlns:xlink="http://www.w3.org/1999/xlink" xmlns:i="http://ns.adobe.com/AdobeIllustrator/10.0/" width="1040" height="820">
	<g id="dp_dp001" transform="matrix(1,0,0,1,-728.972,568.759)">
		<path id="dp_path002" fill="#2c496c" fill-rule="evenodd" fill-opacity="0" d="M 728.988,-568.955 L 1768.99,-568.955 L 1768.99,251.679 L 728.988,251.679 Z "/>
		<path id="dp_path003" fill="#d3a50b" fill-rule="evenodd" d="M 741.909,-6.63067 L 757.444,-6.63067 L 757.444,53.4387 L 741.909,53.4387 Z "/>
		<path id="dp_path004" fill="#d3a50b" fill-rule="evenodd" d="M 748.177,-44 L 751.172,-44 L 751.172,64.284 L 748.177,64.284 Z "/>
		<path id="dp_path005" fill="#efc70e" fill-rule="evenodd" d="M 774.067,13.9973 L 777.065,13.9973 L 777.065,87.608 L 774.067,87.608 Z "/>
		<path id="dp_path006" fill="#efc70e" fill-rule="evenodd" d="M 767.801,27.5813 L 783.335,27.5813 L 783.335,56.068 L 767.801,56.068 Z "/>
		<path id="dp_path007" fill="#d3a50b" fill-rule="evenodd" d="M 793.693,37.116 L 809.228,37.116 L 809.228,148.224 L 793.693,148.224 Z "/>
		<path id="dp_path008" fill="#d3a50b" fill-rule="evenodd" d="M 800.091,26.6773 L 803.089,26.6773 L 803.089,164.619 L 800.091,164.619 Z "/>
		<path id="dp_path009" fill="#d3a50b" fill-rule="evenodd" d="M 819.585,141.847 L 835.12,141.847 L 835.12,156.843 L 819.585,156.843 Z "/>
		<path id="dp_path010" fill="#d3a50b" fill-rule="evenodd" d="M 825.853,116.16 L 828.848,116.16 L 828.848,185.337 L 825.853,185.337 Z "/>
		<path id="dp_path011" fill="#d3a50b" fill-rule="evenodd" d="M 845.479,149.801 L 861.012,149.801 L 861.012,232.068 L 845.479,232.068 Z "/>
		<path id="dp_path012" fill="#d3a50b" fill-rule="evenodd" d="M 851.743,125.531 L 854.741,125.531 L 854.741,245.988 L 851.743,245.988 Z "/>
		<path id="dp_path013" fill="#efc70e" fill-rule="evenodd" d="M 877.639,179.711 L 880.633,179.711 L 880.633,235.424 L 877.639,235.424 Z "/>
		<path id="dp_path014" fill="#efc70e" fill-rule="evenodd" d="M 871.371,193.293 L 886.905,193.293 L 886.905,225.756 L 871.371,225.756 Z "/>
		<path id="dp_path015" fill="#efc70e" fill-rule="evenodd" d="M 903.532,69.3467 L 906.527,69.3467 L 906.527,189.687 L 903.532,189.687 Z "/>
		<path id="dp_path016" fill="#efc70e" fill-rule="evenodd" d="M 897.263,142.585 L 912.797,142.585 L 912.797,166.1 L 897.263,166.1 Z "/>
		<path id="dp_path017" fill="#d3a50b" fill-rule="evenodd" d="M 923.156,126.601 L 938.689,126.601 L 938.689,161.481 L 923.156,161.481 Z "/>
		<path id="dp_path018" fill="#d3a50b" fill-rule="evenodd" d="M 929.42,117.485 L 932.42,117.485 L 932.42,186.664 L 929.42,186.664 Z "/>
		<path id="dp_path019" fill="#efc70e" fill-rule="evenodd" d="M 955.316,-41.3493 L 958.311,-41.3493 L 958.311,214.541 L 955.316,214.541 Z "/>
		<path id="dp_path020" fill="#efc70e" fill-rule="evenodd" d="M 949.048,15.652 L 964.583,15.652 L 964.583,171.399 L 949.048,171.399 Z "/>
		<path id="dp_path021" fill="#efc70e" fill-rule="evenodd" d="M 981.209,-81.1213 L 984.204,-81.1213 L 984.204,86.1133 L 981.209,86.1133 Z "/>
		<path id="dp_path022" fill="#efc70e" fill-rule="evenodd" d="M 974.94,-73.004 L 990.475,-73.004 L 990.475,29.3013 L 974.94,29.3013 Z "/>
		<path id="dp_path023" fill="#efc70e" fill-rule="evenodd" d="M 1007.1,-150.925 L 1010.1,-150.925 L 1010.1,-50.3893 L 1007.1,-50.3893 Z "/>
		<path id="dp_path024" fill="#efc70e" fill-rule="evenodd" d="M 1000.83,-125.203 L 1016.37,-125.203 L 1016.37,-92.0813 L 1000.83,-92.0813 Z "/>
		<path id="dp_path025" fill="#efc70e" fill-rule="evenodd" d="M 1032.99,-186.14 L 1035.99,-186.14 L 1035.99,-100.932 L 1032.99,-100.932 Z "/>
		<path id="dp_path026" fill="#efc70e" fill-rule="evenodd" d="M 1026.73,-139.289 L 1042.26,-139.289 L 1042.26,-127.295 L 1026.73,-127.295 Z "/>
		<path id="dp_path027" fill="#d3a50b" fill-rule="evenodd" d="M 1052.62,-144.753 L 1068.15,-144.753 L 1068.15,29.7333 L 1052.62,29.7333 Z "/>
		<path id="dp_path028" fill="#d3a50b" fill-rule="evenodd" d="M 1058.89,-153.867 L 1061.88,-153.867 L 1061.88,41.664 L 1058.89,41.664 Z "/>
		<path id="dp_path029" fill="#d3a50b" fill-rule="evenodd" d="M 1078.51,40.4227 L 1094.04,40.4227 L 1094.04,29.984 L 1078.51,29.984 Z "/>
		<path id="dp_path030" fill="#d3a50b" fill-rule="evenodd" d="M 1084.78,65.0733 L 1087.77,65.0733 L 1087.77,-9.904 L 1084.78,-9.904 Z "/>
		<path id="dp_path031" fill="#d3a50b" fill-rule="evenodd" d="M 1104.4,29.8587 L 1119.94,29.8587 L 1119.94,-18.2747 L 1104.4,-18.2747 Z "/>
		<path id="dp_path032" fill="#d3a50b" fill-rule="evenodd" d="M 1110.67,43.116 L 1113.66,43.116 L 1113.66,-45.9467 L 1110.67,-45.9467 Z "/>
		<path id="dp_path033" fill="#d3a50b" fill-rule="evenodd" d="M 1130.29,-11.984 L 1145.83,-11.984 L 1145.83,-74.616 L 1130.29,-74.616 Z "/>
		<path id="dp_path034" fill="#d3a50b" fill-rule="evenodd" d="M 1136.56,1.27467 L 1139.56,1.27467 L 1139.56,-87.7893 L 1136.56,-87.7893 Z "/>
		<path id="dp_path035" fill="#efc70e" fill-rule="evenodd" d="M 1162.45,-20.5173 L 1165.45,-20.5173 L 1165.45,-108.211 L 1162.45,-108.211 Z "/>
		<path id="dp_path036" fill="#efc70e" fill-rule="evenodd" d="M 1156.19,-43.34 L 1171.72,-43.34 L 1171.72,-87.6467 L 1156.19,-87.6467 Z "/>
		<path id="dp_path037" fill="#d3a50b" fill-rule="evenodd" d="M 1182.08,-41.812 L 1197.61,-41.812 L 1197.61,-80.416 L 1182.08,-80.416 Z "/>
		<path id="dp_path038" fill="#d3a50b" fill-rule="evenodd" d="M 1188.35,-28.5533 L 1191.34,-28.5533 L 1191.34,-151.172 L 1188.35,-151.172 Z "/>
		<path id="dp_path039" fill="#d3a50b" fill-rule="evenodd" d="M 1207.97,-94.2467 L 1223.51,-94.2467 L 1223.51,-160.912 L 1207.97,-160.912 Z "/>
		<path id="dp_path040" fill="#d3a50b" fill-rule="evenodd" d="M 1214.24,-72.4693 L 1217.23,-72.4693 L 1217.23,-195.501 L 1214.24,-195.501 Z "/>
		<path id="dp_path041" fill="#d3a50b" fill-rule="evenodd" d="M 1233.87,-200.031 L 1249.4,-200.031 L 1249.4,-151.593 L 1233.87,-151.593 Z "/>
		<path id="dp_path042" fill="#d3a50b" fill-rule="evenodd" d="M 1240.13,-221.808 L 1243.13,-221.808 L 1243.13,-139.789 L 1240.13,-139.789 Z "/>
		<path id="dp_path043" fill="#d3a50b" fill-rule="evenodd" d="M 1259.76,-158.187 L 1275.29,-158.187 L 1275.29,-100.636 L 1259.76,-100.636 Z "/>
		<path id="dp_path044" fill="#d3a50b" fill-rule="evenodd" d="M 1266.02,-170.852 L 1269.02,-170.852 L 1269.02,-88.832 L 1266.02,-88.832 Z "/>
		<path id="dp_path045" fill="#d3a50b" fill-rule="evenodd" d="M 1285.65,-147.416 L 1301.18,-147.416 L 1301.18,-140.408 L 1285.65,-140.408 Z "/>
		<path id="dp_path046" fill="#d3a50b" fill-rule="evenodd" d="M 1291.92,-208.965 L 1294.91,-208.965 L 1294.91,-46.992 L 1291.92,-46.992 Z "/>
		<path id="dp_path047" fill="#efc70e" fill-rule="evenodd" d="M 1317.81,-262.16 L 1320.81,-262.16 L 1320.81,-125.583 L 1317.81,-125.583 Z "/>
		<path id="dp_path048" fill="#efc70e" fill-rule="evenodd" d="M 1311.54,-251.765 L 1327.08,-251.765 L 1327.08,-151.119 L 1311.54,-151.119 Z "/>
		<path id="dp_path049" fill="#d3a50b" fill-rule="evenodd" d="M 1337.43,-239.385 L 1352.97,-239.385 L 1352.97,-221.607 L 1337.43,-221.607 Z "/>
		<path id="dp_path050" fill="#d3a50b" fill-rule="evenodd" d="M 1343.7,-270.691 L 1346.7,-270.691 L 1346.7,-130.675 L 1343.7,-130.675 Z "/>
		<path id="dp_path051" fill="#efc70e" fill-rule="evenodd" d="M 1369.59,-324.303 L 1372.59,-324.303 L 1372.59,-150.441 L 1369.59,-150.441 Z "/>
		<path id="dp_path052" fill="#efc70e" fill-rule="evenodd" d="M 1363.33,-308.108 L 1378.86,-308.108 L 1378.86,-211.189 L 1363.33,-211.189 Z "/>
		<path id="dp_path053" fill="#d3a50b" fill-rule="evenodd" d="M 1389.22,-325.869 L 1404.75,-325.869 L 1404.75,-351.271 L 1389.22,-351.271 Z "/>
		<path id="dp_path054" fill="#d3a50b" fill-rule="evenodd" d="M 1395.49,-262.085 L 1398.48,-262.085 L 1398.48,-367.3 L 1395.49,-367.3 Z "/>
		<path id="dp_path055" fill="#d3a50b" fill-rule="evenodd" d="M 1415.11,-371.448 L 1430.65,-371.448 L 1430.65,-159.193 L 1415.11,-159.193 Z "/>
		<path id="dp_path056" fill="#d3a50b" fill-rule="evenodd" d="M 1421.38,-406.423 L 1424.37,-406.423 L 1424.37,-127.653 L 1421.38,-127.653 Z "/>
		<path id="dp_path057" fill="#efc70e" fill-rule="evenodd" d="M 1447.27,-184.781 L 1450.27,-184.781 L 1450.27,-86.92 L 1447.27,-86.92 Z "/>
		<path id="dp_path058" fill="#efc70e" fill-rule="evenodd" d="M 1441.01,-171.309 L 1456.54,-171.309 L 1456.54,-100.38 L 1441.01,-100.38 Z "/>
		<path id="dp_path059" fill="#efc70e" fill-rule="evenodd" d="M 1473.17,-223.048 L 1476.16,-223.048 L 1476.16,-139.745 L 1473.17,-139.745 Z "/>
		<path id="dp_path060" fill="#efc70e" fill-rule="evenodd" d="M 1466.9,-219.104 L 1482.43,-219.104 L 1482.43,-200.057 L 1466.9,-200.057 Z "/>
		<path id="dp_path061" fill="#efc70e" fill-rule="evenodd" d="M 1524.95,-242.391 L 1527.95,-242.391 L 1527.95,-137.364 L 1524.95,-137.364 Z "/>
		<path id="dp_path062" fill="#efc70e" fill-rule="evenodd" d="M 1518.68,-216.721 L 1534.22,-216.721 L 1534.22,-150.823 L 1518.68,-150.823 Z "/>
		<path id="dp_path063" fill="#d3a50b" fill-rule="evenodd" d="M 1492.79,-209.852 L 1508.33,-209.852 L 1508.33,-151.101 L 1492.79,-151.101 Z "/>
		<path id="dp_path064" fill="#d3a50b" fill-rule="evenodd" d="M 1499.06,-260.855 L 1502.05,-260.855 L 1502.05,-141.083 L 1499.06,-141.083 Z "/>
		<path id="dp_path065" fill="#efc70e" fill-rule="evenodd" d="M 1550.84,-313.315 L 1553.84,-313.315 L 1553.84,-197.188 L 1550.84,-197.188 Z "/>
		<path id="dp_path066" fill="#efc70e" fill-rule="evenodd" d="M 1544.57,-294.813 L 1560.11,-294.813 L 1560.11,-208.533 L 1544.57,-208.533 Z "/>
		<path id="dp_path067" fill="#efc70e" fill-rule="evenodd" d="M 1576.73,-396.999 L 1579.73,-396.999 L 1579.73,-301.172 L 1576.73,-301.172 Z "/>
		<path id="dp_path068" fill="#efc70e" fill-rule="evenodd" d="M 1570.47,-378.497 L 1586,-378.497 L 1586,-309.204 L 1570.47,-309.204 Z "/>
		<path id="dp_path069" fill="#d3a50b" fill-rule="evenodd" d="M 1596.36,-334.251 L 1611.89,-334.251 L 1611.89,-316.925 L 1596.36,-316.925 Z "/>
		<path id="dp_path070" fill="#d3a50b" fill-rule="evenodd" d="M 1602.63,-341.753 L 1605.62,-341.753 L 1605.62,-263.823 L 1602.63,-263.823 Z "/>
		<path id="dp_path071" fill="#d3a50b" fill-rule="evenodd" d="M 1622.25,-310.221 L 1637.79,-310.221 L 1637.79,-179.807 L 1622.25,-179.807 Z "/>
		<path id="dp_path072" fill="#d3a50b" fill-rule="evenodd" d="M 1628.52,-317.723 L 1631.52,-317.723 L 1631.52,-170.196 L 1628.52,-170.196 Z "/>
		<path id="dp_path073" fill="#efc70e" fill-rule="evenodd" d="M 1654.07,-429.269 L 1657.07,-429.269 L 1657.07,-255.233 L 1654.07,-255.233 Z "/>
		<path id="dp_path074" fill="#efc70e" fill-rule="evenodd" d="M 1648.14,-410.768 L 1663.68,-410.768 L 1663.68,-287.204 L 1648.14,-287.204 Z "/>
		<path id="dp_path075" fill="#efc70e" fill-rule="evenodd" d="M 1680.31,-479.812 L 1683.3,-479.812 L 1683.3,-338.001 L 1680.31,-338.001 Z "/>
		<path id="dp_path076" fill="#efc70e" fill-rule="evenodd" d="M 1674.04,-461.311 L 1689.57,-461.311 L 1689.57,-397.4 L 1674.04,-397.4 Z "/>
		<path id="dp_path077" fill="#efc70e" fill-rule="evenodd" d="M 1706.2,-514.819 L 1709.19,-514.819 L 1709.19,-417.336 L 1706.2,-417.336 Z "/>
		<path id="dp_path078" fill="#efc70e" fill-rule="evenodd" d="M 1699.93,-489.068 L 1715.47,-489.068 L 1715.47,-462.857 L 1699.93,-462.857 Z "/>
		<path id="dp_path079" fill="#efc70e" fill-rule="evenodd" d="M 1732.09,-559.147 L 1735.09,-559.147 L 1735.09,-447.579 L 1732.09,-447.579 Z "/>
		<path id="dp_path080" fill="#efc70e" fill-rule="evenodd" d="M 1725.82,-533.395 L 1741.36,-533.395 L 1741.36,-462.444 L 1725.82,-462.444 Z "/>
		<path id="dp_path081" fill="#d3a50b" fill-rule="evenodd" d="M 1752.05,-484.891 L 1767.58,-484.891 L 1766.78,-443.54 L 1751.25,-443.54 Z "/>
		<path id="dp_path082" fill="#d3a50b" fill-rule="evenodd" d="M 1757.98,-499.851 L 1760.98,-499.851 L 1760.98,-379.664 L 1757.98,-379.664 Z "/>
		<path id="dp_path083" fill="none" fill-rule="evenodd" stroke="white" stroke-width="13.3333" d="M 746,-33.6 C 755.508,-37.088 1611.66,-544.501 1616.8,-548.8"/>
		<path id="dp_path084" fill="none" fill-rule="evenodd" stroke="white" stroke-width="13.3333" d="M 878.8,225.6 C 888.308,222.112 1744.46,-285.301 1749.6,-289.6"/>
	</g>
</svg>