<?xml version="1.0" encoding="UTF-8" standalone="no"?>
<svg version="1.1" xmlns="http://www.w3.org/2000/svg" xmlns:xlink="http://www.w3.org/1999/xlink" xmlns:i="http://ns.adobe.com/AdobeIllustrator/10.0/" width="1040" height="715">
	<g id="dp_dp001" transform="matrix(1,0,0,1,258.344,-216.289)">
		<path id="dp_path002" fill="#2c496c" fill-rule="evenodd" fill-opacity="0" d="M -257.933,216.689 L 782.064,216.689 L 782.064,931.421 L -257.933,931.421 Z "/>
		<path id="dp_path003" fill="none" fill-rule="evenodd" stroke="#d3a50b" stroke-width="13.3333" stroke-linecap="round" d="M -208,876 C -205.269,873.717 -232.713,555.185 -98.6667,472 C 85.724,357.573 356.281,832.133 574.667,701.333 C 732.116,607.031 685.851,262.975 686.667,262.667"/>
		<path id="dp_path004" fill="none" fill-rule="evenodd" stroke="white" stroke-width="13.3333" d="M -192.533,864.815 L 752,309.333"/>
		<path id="dp_path005" fill="white" fill-rule="evenodd" d="M -113.393,803.823 L -144.797,787.636 L -112.449,768.505 Z "/>
		<path id="dp_path006" fill="none" fill-rule="evenodd" stroke="white" stroke-width="6.66667" d="M -120.052,792.601 C -121.039,791.081 -171.784,705.379 -172.364,704.371"/>
		<path id="dp_path007" fill="white" fill-rule="evenodd" d="M -19.2413,749.331 L -50.6453,733.144 L -18.2973,714.013 Z "/>
		<path id="dp_path008" fill="none" fill-rule="evenodd" stroke="white" stroke-width="6.66667" d="M -25.9,738.109 C -26.8867,736.589 -77.632,650.887 -78.2133,649.879"/>
		<path id="dp_path009" fill="white" fill-rule="evenodd" d="M 74.0587,694.136 L 42.6547,677.949 L 75.0027,658.819 Z "/>
		<path id="dp_path010" fill="none" fill-rule="evenodd" stroke="white" stroke-width="6.66667" d="M 67.4,682.915 C 66.4133,681.395 15.668,595.692 15.088,594.684"/>
		<path id="dp_path011" fill="white" fill-rule="evenodd" d="M 164.069,641.527 L 132.665,625.34 L 165.015,606.209 Z "/>
		<path id="dp_path012" fill="none" fill-rule="evenodd" stroke="white" stroke-width="6.66667" d="M 157.411,630.304 C 156.425,628.785 105.679,543.081 105.099,542.075"/>
		<path id="dp_path013" fill="white" fill-rule="evenodd" d="M 606.044,408.745 L 637.448,424.932 L 605.1,444.063 Z "/>
		<path id="dp_path014" fill="none" fill-rule="evenodd" stroke="white" stroke-width="6.66667" d="M 612.703,419.967 C 613.689,421.487 664.435,507.189 665.015,508.197"/>
		<path id="dp_path015" fill="white" fill-rule="evenodd" d="M 511.892,463.237 L 543.296,479.424 L 510.948,498.555 Z "/>
		<path id="dp_path016" fill="none" fill-rule="evenodd" stroke="white" stroke-width="6.66667" d="M 518.551,474.459 C 519.537,475.979 570.283,561.681 570.864,562.689"/>
		<path id="dp_path017" fill="white" fill-rule="evenodd" d="M 418.592,518.432 L 449.996,534.619 L 417.648,553.749 Z "/>
		<path id="dp_path018" fill="none" fill-rule="evenodd" stroke="white" stroke-width="6.66667" d="M 425.251,529.653 C 426.237,531.173 476.983,616.876 477.563,617.884"/>
		<path id="dp_path019" fill="white" fill-rule="evenodd" d="M 328.581,571.041 L 359.985,587.228 L 327.636,606.359 Z "/>
		<path id="dp_path020" fill="none" fill-rule="evenodd" stroke="white" stroke-width="6.66667" d="M 335.24,582.264 C 336.225,583.783 386.972,669.487 387.552,670.493"/>
		<path id="dp_path021" fill="white" fill-rule="evenodd" d="M 779.627,294.615 L 751.677,352.515 L 715.335,294.579 Z "/>
	</g>
</svg>