<?xml version="1.0" encoding="UTF-8" standalone="no"?>
<svg version="1.1" xmlns="http://www.w3.org/2000/svg" xmlns:xlink="http://www.w3.org/1999/xlink" xmlns:i="http://ns.adobe.com/AdobeIllustrator/10.0/" width="1040" height="403">
	<g id="dp_dp001" transform="matrix(1,0,0,1,316.423,62.0827)">
		<path id="dp_path002" fill="#2c496c" fill-rule="evenodd" fill-opacity="0" d="M -316.6,-61.9773 L 723.397,-61.9773 L 723.397,340.756 L -316.6,340.756 Z "/>
		<path id="dp_path003" fill="none" fill-rule="evenodd" stroke="#d3a50b" stroke-width="13.3333" stroke-linecap="round" d="M -283.733,110.933 C -272.737,117.303 -232.597,240.437 -213.12,240.96 C -191.76,241.533 -170.344,30.1893 -147.2,29.8667 C -118.008,29.46 -122.168,307.111 -89.3333,309.14 C -60.6547,310.912 -50.7213,28.7267 -6.93333,-32.5333 C 14.188,-62.0813 28.7453,228.816 56.4013,228.544 C 88.6347,228.227 75.7187,93.4787 96.5333,93.8667 C 119.675,94.2987 121.788,303.005 142.933,303.467 S 162.096,60.1427 185.067,60.2667 S 206.419,248.035 227.733,248 S 252.112,94.952 267.243,94.2947 C 282.001,93.6533 295.871,154.377 310.4,154.067 C 326.34,153.725 343.941,136.812 359.467,136.467 C 373.804,136.148 386.911,145.273 400.775,145.072 C 418.04,144.821 482.715,140.836 497.603,140.945 C 519.255,141.104 539.627,153.801 558.393,153.203 C 585.536,152.337 609.323,135.3 628.779,135.544 C 662.937,135.972 683.733,144.269 685.867,143.467"/>
		<path id="dp_path004" fill="none" fill-rule="evenodd" stroke="white" stroke-width="13.3333" stroke-dasharray="16,16" d="M 249.076,243.033 L 248.82,38.088"/>
		<path id="dp_path005" fill="none" fill-rule="evenodd" stroke="white" stroke-width="13.3333" stroke-dasharray="16,16" d="M 689.076,243.033 L 688.82,38.088"/>
	</g>
</svg>