<?xml version="1.0" encoding="UTF-8" standalone="no"?>
<svg version="1.1" xmlns="http://www.w3.org/2000/svg" xmlns:xlink="http://www.w3.org/1999/xlink" xmlns:i="http://ns.adobe.com/AdobeIllustrator/10.0/" width="1040" height="633">
	<g id="dp_dp001" transform="matrix(1,0,0,1,-736.981,-452.604)">
		<path id="dp_path002" fill="#2c496c" fill-rule="evenodd" fill-opacity="0" d="M 736.488,452.544 L 1776.49,452.544 L 1776.49,1085.68 L 736.488,1085.68 Z "/>
		<path id="dp_path003" fill="white" fill-rule="evenodd" d="M 1251.22,839.453 L 1204.37,764.859 L 1298.08,764.859 Z "/>
		<path id="dp_path004" fill="none" fill-rule="evenodd" stroke="white" stroke-width="13.3333" d="M 1251,782.9 C 1250.91,780.692 1250.84,659.179 1250.86,657.76"/>
		<path id="dp_path005" fill="none" fill-rule="evenodd" stroke="#daab43" stroke-width="33.3333" d="M 770.988,1062.12 C 883.868,926.389 1102.5,879.743 1263.92,978 C 1447.98,1090.03 1633.42,1053.06 1739.6,941.2"/>
		<path id="dp_path006" fill="none" fill-rule="evenodd" stroke="#daab43" stroke-width="10.6667" stroke-linecap="round" d="M 768,628.8 L 796.989,573.063 L 829.788,586.655 L 862.213,523.7 L 893.88,542.996 L 927.352,487.455 L 959.229,513.121 L 991.195,480.757 L 1023.89,503.795 L 1057.34,477.817 L 1088.05,493.021 L 1120.53,469.589 L 1153.73,523.471 L 1186.22,488.397 L 1218.38,536.333 L 1250.09,520.363 L 1282.59,542.284 L 1315,592.261 L 1347.21,542.647 L 1379.25,601.637 L 1411.94,582.656 L 1444.75,629.66 L 1477.44,588.147 L 1510.4,649.333 L 1541.39,539.951 L 1574.45,625.727 L 1606.63,549.153 L 1639.09,590.677 L 1672.84,531.788 L 1702.71,564.251 L 1733.44,504.32"/>
	</g>
</svg>