<?xml version="1.0" encoding="UTF-8" standalone="no"?>
<svg version="1.1" xmlns="http://www.w3.org/2000/svg" xmlns:xlink="http://www.w3.org/1999/xlink" xmlns:i="http://ns.adobe.com/AdobeIllustrator/10.0/" width="1031" height="813">
	<g id="dp_dp001" transform="matrix(1,0,0,1,356.475,515.688)">
		<path id="dp_path002" fill="#2c496c" fill-rule="evenodd" fill-opacity="0" d="M -356.068,-515.896 L 674.213,-515.896 L 674.213,297.071 L -356.068,297.071 Z "/>
		<path id="dp_path003" fill="#daab43" fill-rule="evenodd" stroke="#daab43" stroke-width="1.33333" d="M -300.531,193.783 L -198.452,193.783 L -198.452,294.812 L -300.531,294.812 Z "/>
		<path id="dp_path004" fill="#daab43" fill-rule="evenodd" d="M 525.123,-259.712 L 485.605,-204.369 C 483.571,-201.54 484.237,-197.603 487.064,-195.58 C 488.471,-194.573 490.161,-194.221 491.761,-194.487 C 493.349,-194.751 494.835,-195.629 495.853,-197.037 L 529.065,-243.568 Z "/>
		<path id="dp_path005" fill="#daab43" fill-rule="evenodd" d="M 481.913,-248.356 L 473.247,-254.545 C 472.915,-254.795 472.577,-255.067 472.256,-255.331 L 433.623,-201.221 C 431.588,-198.392 432.252,-194.467 435.079,-192.444 C 436.488,-191.425 438.188,-191.088 439.776,-191.352 C 441.364,-191.615 442.852,-192.481 443.868,-193.903 L 482.493,-247.984 C 482.307,-248.119 482.1,-248.223 481.913,-248.356"/>
		<path id="dp_path006" fill="#daab43" fill-rule="evenodd" d="M 455.776,-297.791 L 422.627,-251.181 C 420.604,-248.355 421.259,-244.415 424.085,-242.392 C 425.507,-241.376 427.195,-241.036 428.783,-241.3 C 430.371,-241.563 431.859,-242.429 432.875,-243.851 L 472.44,-299.429 Z "/>
		<path id="dp_path007" fill="#daab43" fill-rule="evenodd" d="M 531.608,-295.104 C 532.951,-295.327 534.323,-295.213 535.639,-294.748 C 538.351,-293.807 540.332,-291.543 541.068,-288.553 L 552.156,-243.149 C 558.631,-254.823 568.829,-273.401 575.523,-286.579 C 585,-305.24 579.692,-334.868 579.643,-335.164 C 578.917,-339.079 580.376,-343.785 583.184,-346.604 C 583.888,-347.316 653.769,-418.473 646.859,-489.324 L 646.859,-489.324 C 646.789,-489.971 646.66,-490.291 646.611,-490.357 C 646.361,-490.493 645.384,-490.508 645.089,-490.46 C 576.531,-473.924 533.012,-383.929 532.58,-383.024 C 530.864,-379.412 526.879,-376.449 522.929,-375.857 C 522.633,-375.808 491.84,-370.964 478.891,-356.307 C 469.511,-345.681 454.909,-329.471 445.679,-319.237 L 491.816,-323.768 C 494.879,-324.06 497.669,-322.943 499.459,-320.697 C 501.26,-318.453 501.728,-315.483 500.745,-312.563 L 487.207,-272.028 L 493.909,-267.233 L 527.523,-293.276 C 528.791,-294.245 530.18,-294.868 531.608,-295.104M 551.379,-221.757 C 550.689,-221.643 549.969,-221.637 549.233,-221.731 C 546.113,-222.161 543.74,-224.5 542.899,-227.965 L 530.303,-279.493 L 500.657,-256.525 C 496.923,-253.641 491.427,-253.527 487.581,-256.279 L 478.915,-262.468 C 475.084,-265.197 473.396,-270.42 474.88,-274.891 L 486.813,-310.617 L 434.127,-305.456 C 430.555,-305.104 427.565,-306.581 426.135,-309.405 C 424.717,-312.231 425.313,-315.504 427.729,-318.169 C 427.996,-318.467 454.979,-348.267 469.439,-364.643 C 485.017,-382.279 517.82,-387.823 520.867,-388.289 C 520.996,-388.349 521.173,-388.493 521.283,-388.6 C 522.403,-390.923 533.505,-413.585 553.215,-438.573 C 580.481,-473.137 611.293,-495.325 642.316,-502.749 L 642.524,-502.796 C 643.624,-503.029 649.361,-503.969 654.147,-500.437 C 656.253,-498.876 658.871,-495.908 659.393,-490.543 L 659.393,-490.543 C 662.519,-458.592 651.82,-421.983 628.46,-384.688 C 611.543,-357.659 593.992,-339.632 592.228,-337.833 C 592.163,-337.696 592.076,-337.455 592.065,-337.288 C 592.583,-334.401 597.876,-302.797 586.752,-280.879 C 576.227,-260.145 557.216,-226.369 557.021,-226.02 C 555.684,-223.636 553.656,-222.136 551.379,-221.757"/>
		<path id="dp_path008" fill="#daab43" fill-rule="evenodd" d="M 603.42,-414.927 C 604.68,-407.331 599.547,-400.155 591.939,-398.892 C 584.344,-397.632 577.168,-402.767 575.908,-410.361 C 574.645,-417.969 579.779,-425.145 587.375,-426.405 C 594.983,-427.668 602.159,-422.533 603.42,-414.927"/>
		<path id="dp_path009" fill="#daab43" fill-rule="evenodd" stroke="#daab43" stroke-width="1.33333" d="M -178.587,128.009 L -76.508,128.009 L -76.508,294.809 L -178.587,294.809 Z "/>
		<path id="dp_path010" fill="#daab43" fill-rule="evenodd" stroke="#daab43" stroke-width="1.33333" d="M -54.536,56.9733 L 47.5427,56.9733 L 47.5427,294.808 L -54.536,294.808 Z "/>
		<path id="dp_path011" fill="#daab43" fill-rule="evenodd" stroke="#daab43" stroke-width="1.33333" d="M 69.6453,-14.0613 L 171.724,-14.0613 L 171.724,294.808 L 69.6453,294.808 Z "/>
		<path id="dp_path012" fill="#daab43" fill-rule="evenodd" stroke="#daab43" stroke-width="1.33333" d="M 193.827,-78.2587 L 295.905,-78.2587 L 295.905,293.751 L 193.827,293.751 Z "/>
		<path id="dp_path013" fill="none" fill-rule="evenodd" stroke="white" stroke-width="20" d="M -336.812,245.719 C 3.56,237.593 182.813,120.395 374.968,-109.304"/>
		<path id="dp_path014" fill="white" fill-rule="evenodd" d="M 409.253,-153.203 L 400.799,-65.5227 L 326.597,-122.747 Z "/>
	</g>
</svg>